<svg id="Layer_1" data-name="Layer 1" xmlns="http://www.w3.org/2000/svg" viewBox="0 0 3240.37 3288.2"><defs><style>.cls-1{fill:#fff;}</style></defs><path d="M2472,853.32c5.08,23.92,10.71,47.78,14.48,71.92,11.44,73.22,5.55,146.48.08,219.81-3.35,44.93-3.5,90.1-6.7,135-2.69,38-6.72,75.88-11.91,113.57-7.57,54.92-16.79,109.61-25.18,164.42-11.12,72.64-25.16,145-32.26,218-6.6,67.89,11,132.84,62.44,179.73,44.67,40.74,88.67,84.51,146.78,107.92,2.1.85,3.73,3.29,5,5.33.31.48-1.6,3.42-2.46,3.41a18.14,18.14,0,0,1-7.59-1.7c-2-1-3.53-3.08-5.27-4.69-.41,4.08-2.77,10-.93,12,19.41,20.44,32.35,50,65.65,51.94,13.76.79,27.75-2.87,41.68-4.09,5.45-.48,11.75-1.41,16.32.73,6.49,3,11.73,8.72,17.51,13.27-6-1.08-12-2.25-18-3.21-2.49-.39-5.06-.31-7.59-.45,2.06,1.8,4.24,3.48,6.14,5.43,6,6.12,11.82,12.34,17.69,18.54.2.21.33.84.21.93-17,13.42,8.49,15.59,6.76,25.29-.89,5,.15,10.36.32,15.55-3.49-3-7.16-5.84-10.41-9.1-7.63-7.64-14.28-21-22.7-22.16-21.33-3-43.63-2.29-65.13.31s-44,5.75-63.05,15c-31.51,15.33-62.6,33.12-90.15,54.63-41.54,32.44-88.11,51.79-137.85,66-18.13,5.18-35.58,16.85-53.56,17.33-19.7.53-39.54-9-59.53-13.08-11.54-2.38-23.88-1.41-35.14-4.54-9.56-2.65-21.61-6.75-26.39-14.18-12.61-19.58-35.68-35.43-28.1-64.12.41-1.56-1.13-3.63-1.76-5.47-1.15,1-2.38,2.93-3.45,2.85-1.91-.14-5.1-1.16-5.4-2.38-4.09-17.08-7.38-34.36-11.73-51.36-2.51-9.77-6.6-19.12-9.94-28.68-.53-1.52-.88-3.1-1.33-4.65q-1.91-6.54-3.83-13.09c.12,3.48.26,7,.35,10.43.51,19.39-3.22,40.11,2.36,57.91,12.58,40.14,21.89,83.71,64.55,106.11,1.5.79,2.6,2.35,3.89,3.55-1.53-.22-3.07-.38-4.59-.66-51-9.58-63.76-52.29-72.72-92.5-8.4-37.73-6-77.78-10-116.65-.88-8.54-6.69-19.45-13.67-24-30.76-20.07-47.7-49.68-58.19-82.84a372.05,372.05,0,0,1-15.13-75.4c-3-30.82-2-62-3.06-93.06-.83-25.27-2.06-50.54-3.12-75.8-.06-1.49-.27-3-.4-4.46-1.71.92-3.7,1.54-5.08,2.82-25.72,24-52.27,47.18-76.81,72.33-31.49,32.26-60.72,66.72-92.14,99.05-21.34,21.95-50.82,24.62-79.24,26.15-44.94,2.4-90,3.87-135,3.33-9.61-.11-19.11-10.51-28.64-16.16,9.65,2.94,19.22,8.15,28.91,8.38,35.18.84,70.48,1.29,105.59-.66,23.06-1.28,50-.54,67.92-12.05,32.14-20.64,59-49.61,87.69-75.51,20.11-18.17,40-36.63,59.29-55.68,35.46-35,70.89-70.08,105.32-106.09,14.95-15.64,29-32.63,40.67-50.81,22.59-35.24,50.83-69.43,62.69-108.34,15-49.37,15.75-103.06,23.3-154.79,7.69-52.73,16.47-105.3,24-158,1.51-10.54-2.46-22-.17-32.25,6-26.55,18.18-52.31,20.22-79,3.33-43.38,5.11-87.85-.74-130.73-8.36-61.2-38.64-115.47-66.32-170.28-20.42-40.41-39.73-82-53.51-124.92A460.29,460.29,0,0,1,2087,598.57c-5.32-38-24.44-74.55-41-110.18-4.45-9.59-20.87-13.62-31.77-20.24-23.35-14.18-46.64-28.45-70-42.53-4.49-2.71-9.64-4.34-14-7.16-3.94-2.52-7-6.38-11-8.94-2.74-1.78-6.23-2.47-9.44-3.46-5.29-1.63-11.12-5.29-15.87-4.24-15.7,3.47-31.47,7.56-46.37,13.51-14.7,5.88-28.57,14-42.44,21.77-10.28,5.77-19.22,15-30.09,18.38-15.93,4.95-33,6.95-49.68,8.57-23.89,2.31-47.94,3.05-71.9,4.63-16.25,1.07-32.56,1.81-48.7,3.84-18.93,2.39-57.23,16.83-57.23,16.83-7.22,1.38-15.38.94-21.53,4.25-23.9,12.9-48.61,25-70.36,41-43.06,31.71-73.87,74.15-101.33,119.94-33.92,56.57-58.23,115.91-66.34,181.53-4.18,33.9-8.5,67.8-11.76,101.8-.43,4.49,4.71,13.39,7.8,13.64,10.94.88,22.26-2.7,33.17-1.71q53.4,4.8,106.57,12c9.18,1.24,17.7,8.95,26.75,9.43,34.23,1.81,58.53,20.84,80.83,43.76,4.17,4.28,6.34,10.51,9.43,15.85-7.72,2.18-15.33,4.87-23.17,6.38-5.64,1.08-11.81-.33-17.34,1-6.84,1.68-13.88,8.32-19.74,7.18-27.24-5.28-53.86-13.83-81.15-18.7-35-6.24-70.4-10.45-105.73-14.65-7-.84-20,.55-21,3.83-8.31,26,2.68,35.54,29.67,29.66,17.23-3.76,35.5-7.25,52.73-5.43,23.23,2.47,45.89,10.24,68.83,15.56,7.85,1.82,16.38,1.8,23.62,4.9,11,4.72,20.83,12.24,31.81,17.1,17.68,7.84,36.26,13.72,53.68,22.06,5.3,2.53,8,10.43,11.95,15.87-5.27-.79-10.53-1.62-15.81-2.34-1.86-.25-3.76-.24-5.64-.34.15,1.12-.11,2.57.5,3.3,4.19,5,7.75,11.2,13,14.69,22.91,15.11,23.09,18.12,24.49,39.92,1.61,25.09-19.73,15.93-29.61,20.21s-24-2.18-36.33-2.71c-18.08-.8-36.21-.83-54.32-.62-33.59.39-67.22.51-100.77,2.08-21.77,1-43.45,4.17-65.13,6.81-9.24,1.12-20.55-1.52-20,15.35.35,10.82-3,23-8.34,32.53-15.23,27.38-32.29,53.74-48.67,80.48-3.08,5-5.81,10.41-9.67,14.78-8.26,9.36-10.65,103.27,11.81,133.5,12.06,16.22,17.44,37.3,26.76,55.72,8.93,17.62,16.18,37.3,29.24,51.38,32.38,34.91,67.76,67,101.76,100.48,55.65,54.71,122.85,96.77,171.68,159.15,20.64,26.37,45.59,49.36,68.58,73.88l-5.78,2.15,2.21,3c1.1-1.8,2.21-3.59,3.31-5.38q.63,6,1.25,11.93c-15.41-15-30.66-30.11-46.27-44.87-9.92-9.37-20.61-17.93-30.54-27.29-20.91-19.73-41.51-39.79-62.36-59.59-1.45-1.38-3.84-1.78-5.79-2.64-.5,2.45-2,5.25-1.33,7.3,15.32,45.53,33,90.39,45.78,136.61,12.19,44.23,20.79,89.62,28,135,4.49,28.12,1.48,57.42,5.78,85.59,2.34,15.33,12.34,29.71,19.89,44,18,34,38.6,66.84,54.47,101.81,21.7,47.83,45.93,95.81,57.92,146.37,10.19,43,4.22,89.74,6.27,134.78.43,9.47,6,18.66,6.82,28.18.94,11.55-3.49,24-.74,34.83,6.73,26.57,20.4,51.92,23.62,78.69,4.28,35.59,8.31,73.83-.22,107.75-13.33,53.07-32.09,106.32-58.38,154.09-20.82,37.85-56.38,67.58-85.4,100.91-.65.75-1.12,1.89-1.93,2.22-6.89,2.77-13.84,5.39-20.77,8.06,4.39-5.27,8.83-10.49,13.14-15.83,2.81-3.48,5.42-7.12,8.12-10.69-4.14,1.88-8.25,3.82-12.42,5.62-6.28,2.71-13.15,4.47-18.74,8.18-5.94,4-14.93,9.43-15.29,14.74-3.73,54.68,61.26,113,108,109.67,12.48-.9,24.47-8.59,36.71-13.11,2.74-1,5.56-1.84,8.34-2.75-.45,3.46-.09,7.31-1.49,10.33-10.15,21.9-31.6,23.69-50.61,23.44-27.42-.36-55.12-4-82-9.63-11.74-2.47-21.67-13.42-32.52-20.37-1.38-.89-3.36-.85-5.07-1.24.85,1.47,1.43,3.19,2.58,4.37,9.6,9.91,18.82,20.28,29.26,29.2,3.32,2.84,10,1.55,15.11,2.55,1.95.39,3.68,1.9,5.51,2.9-1.55,1-3,2.84-4.66,3-32.61,3.14-64.06-3.06-77.51-41.43-6.68-19-16.39-37-25.13-55.22-.81-1.69-4.55-2.11-7-2.81-1.1-.32-2.42.12-3.64.21.47-.79,1-1.57,1.39-2.37,1.35-2.44,2.68-4.88,4-7.31-4.58.69-9.14,1.8-13.74,2-8.49.35-17.16,1.07-25.39-.39-2.32-.41-5.38-11.23-4.7-11.64a170.11,170.11,0,0,1,24.82-12.13c2.8-1.11,6.5.08,9.79.22-2.29-3-5.46-5.76-6.69-9.17-3.34-9.2-5.93-18.66-8.53-28.1-.24-.86,1.61-2.28,2.49-3.44.84,1.34,1.43,3,2.61,3.92.75.58,2.37,0,3.61,0-.79-7.45-.81-15.1-2.64-22.3-1.14-4.49-5-8.3-7.62-12.42.49,5.89,1.75,11.83,1.27,17.63-.59,7.19-2.59,14.27-4.13,21.37-.09.43-2,1-2.11.82a17.28,17.28,0,0,1-2.92-4.86c-1.83-6.27-3.38-12.62-5-18.92,1.41-2.2,2.87-4.36,4-6.67.12-.24-1.49-1.36-2.3-2.07q-.75,4.48-1.48,9l-2.25,9.75c-1.11-3.57-2.19-7.14-3.35-10.68-.39-1.19-1-2.31-1.47-3.45-1,.62-2.33,1-2.94,1.91-13,18.95-25.93,38.39-53.09,36.08-4.76-.41-9.23-4.19-13.83-6.42,2.4-1.3,5.19-2.19,7.15-4,13.35-12.23,26.63-24.55,39.52-37.26.85-.84-.94-6.57-2.85-7.66-26.66-15.21-53.62-29.89-80.32-45-5-2.85-9-7.68-14-10.46-2.09-1.15-5.87,1.24-8.8,1-2.46-.22-5.52-1.3-7.08-3.09-13.49-15.37-27.73-30.23-39.67-46.75-10.24-14.17-17-30.78-26.77-45.37-4.3-6.45-11.69-11.22-18.43-15.59-16.81-10.88-34-21.24-51.16-31.52-14.57-8.71-32.61-14.11-43.41-26.11-21.72-24.11-39.58-51.71-59-77.92a46.79,46.79,0,0,1-3.15-5.74c-.7,1.81-1.33,3.65-2.11,5.41-18.54,41.56-8.88,83.87-1.73,125.5,6.42,37.37,16.64,74.07,24.77,111.16,6.19,17.8,13.84,35.95,2.56,32.65-43.89-8.48-98-44.41-122.76-84.5-18-29.24-26.4-65.44-34.36-99.63-7.39-31.71-12.05-65-11.37-97.39.61-28.68,10.29-57.17,15.86-85.76,1.87-9.54,3.42-19.15,5.12-28.73-3.09,7.71-7.8,15.18-9,23.18-6.15,41.25-14.32,82.52-15.95,124-1.09,27.82,7.57,56,11.77,84.05.23,1.5-.35,3.12-.55,4.68-2.64-3-7-5.77-7.65-9.18-6.34-34.95-13.2-69.87-17.42-105.1-1.83-15.25,2.16-31.19,3.43-46.83a14.56,14.56,0,0,0-.71-3.77c-.7,1-2,2-2,3.08-1.34,32.82-6,66-2.82,98.38,3,30.39,14.21,60,21.81,89.92h0c-8.88,1-21.75-14.05-24.75-32.23-5.26-31.86-15-64.53-12-95.83,4.23-44.3,15.57-88.54,29.26-131.06,7.56-23.45-5.66-34-15.18-48.81-8.8-13.69-16.57-28.11-26.19-41.17-2.67-3.63-10.64-5.65-15.64-4.88-19.1,2.91-38,7.39-57,10.86-1.69.31-5.74-2.73-5.58-3.73.39-2.52,2.39-4.91,4.2-7,.25-.29,3,2.41,4.63,2.41,7.94,0,18.07,2.45,23.3-1.47,7.33-5.49,11-15.83,16.12-24.21.16-.27-1.76-2.61-2.7-2.6-11.78.12-23.85,2.15-35.22.12-6-1.07-10.73-9.1-16-14,4.57-1.15,9.56-1.51,13.58-3.68,3.75-2,6.66-5.8,9.55-9.14,2.54-2.94,4.53-6.35,6.77-9.55.51,2.39,1,4.8,1.6,7.17.1.4,1.17,1,1.24.92,9.78-9.89,27-19.16,27.93-29.9,4-43.73.92-88.27,29.71-126.14A268.81,268.81,0,0,0,843,2266.72c30.48-55.87,63-111.47,67.14-176.79,1.28-20.12-2.32-44.19-13.09-60.09-6.44-9.5-31.45-10.22-47.52-8.71a333.46,333.46,0,0,1-150.26-20c-21.45-8-45.19-17.4-60.39-33.32-54.89-57.51-92.9-124.44-97-206.49-1.45-28.67-5-57.5-3.16-86,1.38-21.79-8.11-37.2-20.38-51.36-27.12-31.33-41.25-67.42-43.34-108.19-3.59-70,31.55-115.07,92.62-144.76,20.4-9.92,41-23.24,55.69-40,15-17.11,25.05-39.6,33.45-61.22,14.15-36.41,25.81-73.83,37.56-111.13,11.84-37.6,23.73-75.27,33.28-113.49,6.32-25.28,8.45-51.6,12.66-77.43,3.88-23.79,8.32-47.49,12-71.31s6-48,10-71.81c5.44-32.34,10.71-64.78,18.21-96.67,10.18-43.24,19.36-87.1,34.53-128.67,18.25-50,40.25-99,64.58-146.42,18-35,41-67.63,64.17-99.62,14-19.42,32.31-35.87,49.19-53.16,27.67-28.34,54.58-57.58,84.11-83.86,16.49-14.67,37.87-23.76,56.53-36.14,7.67-5.08,115.41-60.64,164-78.14,32.08-11.57,66.4-17.19,100-24.29,40.1-8.48,137.32-23.44,145.6-23.71,37.48-1.22,71.87-2.75,112.42-3.27A193.8,193.8,0,0,1,1697,60.93c27.85,9.79,56.54,18.31,82.61,31.76,38.59,19.9,81.12,33.8,108.19,72.85,10.51,15.16,26.16,28.43,49.79,30.43,9.34.79,19.56-.15,29.13,1.5,25.68,4.43,51.56,8.14,76.84,14.26,15.51,3.75,121.52,57.5,158.69,79.51a289.14,289.14,0,0,1,33,23.22c5.6,4.48,10.16,10.58,14.21,16.62,14.28,21.23,29,42.22,41.86,64.33,11,18.91,19.78,39.09,29,59,4.65,10.05,69.8,132.77,73.87,141.39,5.2,11,18.3,37.73,17.15,36.77m51.9,182.39,29.24,1417.4c-2.54,2.33-4.83,5-7.67,6.93-17.17,11.38-34.46,22.57-51.71,33.82-1,.67-2.11,1.29-3.17,1.93.84.17,1.95.78,2.48.45q30.81-19.14,61.43-38.6c.35-.22-.89-3-1.38-4.52,3.32-.42,6.66-.74,9.94-1.36.6-.12,1-1.44,1.47-2.21Zm-840,298.11,11.82,5.48-6.41,5.74,3.38,2.14,2.75-8.13c-1-21.75-1.88-43.51-3.32-65.22-.2-3.12-3.29-6-5-9-.42,3.51-1.24,7-1.18,10.55.14,7.88,1.32,15.78,1,23.63-.5,11.64-1.94,23.25-3,34.87-.11,7.38-.75,14.81-.09,22.13.32,3.55,3.08,6.89,4.73,10.32.61-4.06,2.3-8.33,1.58-12.14C1657.41,2543.85,1654.65,2537.21,1652.49,2530.44ZM779,1989.4l10.32-3.64c-2.45-2.94-4.75-6-7.37-8.81-7.91-8.43-16.58-16.24-23.83-25.2-25.66-31.71-40.15-66.57-33-108.84,2.21-13.11,1.3-28.68-4-40.48-3.75-8.3-17.38-12.14-26.6-18-3.53,8.17-7.09,16.33-10.59,24.52-.79,1.82-1.9,3.71-2,5.6-.84,23.73,3.72,49,6.52,72.36,1.76,14.73,6.45,26.57,11.21,41.34C707.53,1952.81,752.16,1989.23,779,1989.4Zm726,1008c3.07,3.41,9,10.46,9.3,10.26,10.61-8.4,27.34-16,29.68-26.67,8.42-38.41,14.6-77.76,16.3-117,1-21.86-8.59-44.18-13.49-66.27-2-9.17-4-18.37-6.65-27.4-.73-2.52-3.5-4.46-5.34-6.67-.77,2.65-2,5.28-2.21,8-1.2,18.39-1,36.94-3.43,55.15C1521.74,2882.68,1513.39,2938.44,1505,2997.4Zm125.13-585.57c1.41-4.41,1.93-6,2.45-7.7,1.1,2.59,2.16,5.19,3.32,7.75,1.58,3.5,3.23,7,4.85,10.46-.3-3.67.7-8.24-1.12-10.86-7.9-11.39-17.17-21.84-24.93-33.31-13.94-20.62-27.15-41.72-40.67-62.62q-3.09-4.78-6.2-9.55c.87,4.23,1.11,8.73,2.74,12.66,10.93,26.42,22.12,52.73,33.35,79,1.35,3.16,3.45,6,5.21,9a37.89,37.89,0,0,0-6.28-3.59c-.38-.14-2.94,3-2.6,3.87q20.38,54.09,41.27,108c.29.76,1.83,1,2.78,1.55-.56-23,.26-46.15-2.23-68.94C1640.64,2434.7,1633.79,2422.39,1630.1,2411.83ZM1444.42,1160.45l-7.42,4.29c3.16,1.67,6.31,4.76,9.48,4.78,14.81.12,29.8.66,44.38-1.4,14-2,25.5.28,36.53,9.1,2.13,1.7,7.92-1.17,12-1.93-1.24-2.58-1.79-6.24-3.85-7.55-10.93-7-22.52-13-33.37-20-23.46-15.33-46.59-31.16-69.93-46.68-1.53-1-3.67-1.11-5.53-1.64a16.23,16.23,0,0,0,.29,3.14Q1435.68,1131.5,1444.42,1160.45Zm-184.11,9.66c-6.77,17.28,9.59,12.05,17.28,13.06,15.84,2.08,29.33-.81,23.78-22.46-2.58-10.07-2.71-26.41-8.55-28.84C1280.66,1126.81,1260.51,1151.39,1260.31,1170.11ZM838.17,1927c.29-3.35,1.05-5.23.47-6.5-4.11-9-8.58-17.92-12.72-26.94-.73-1.61-.45-3.69-.63-5.55,2.64.65,6.54.4,7.72,2.08,11.78,16.64,23,33.7,34.72,50.36,1.7,2.42,5.51,3.36,8.35,5-.5-3.67.14-8.08-1.69-10.89-16.79-25.73-33.06-52.09-63-65.18-3.11-1.36-6.07-3.07-9.09-4.62-.71,2.06-2.62,5-1.88,6,2.34,3.18,5.93,5.39,8.53,8.42s5.59,6.44,6.89,10.19c1.9,5.5,1,12.39,3.94,17C824.3,1913.52,831,1919.23,838.17,1927Zm789.71,447.2c-1.42-4.61-1.91-9.19-4.07-12.77q-30.09-50.05-60.75-99.77c-1-1.55-3-2.43-4.68-3.51a12.92,12.92,0,0,0-2.35-1c-.19.9-.78,2-.5,2.67,2.47,6.31,4.31,13,7.81,18.73,19.82,32.29,40.05,64.33,60.2,96.41.6,1,1.9,1.45,2.87,2.17C1627,2376.09,1627.48,2375,1627.88,2374.21Zm-831-414.36c-12-20.28-23.48-40.39-35.7-60-4.74-7.62-11.16-14.19-16.81-21.24l8.54,24.06a4,4,0,0,0,.32.74c12,19.8,23.93,39.63,36.14,59.3.53.85,3.57.55,5.25.09C795.62,1962.49,796.21,1960.83,796.92,1959.85Zm738.18,322.48,2.41-.79c-1.88-5.37-3.63-10.78-5.7-16.07-.68-1.76-2.18-3.2-3.3-4.78-.11,2-.79,4.17-.25,6q11.34,37.93,23.06,75.74c.43,1.4,2.11,2.42,3.22,3.62.36-.4,1.1-.89,1-1.2-1.94-8.86-3.25-17.95-6.16-26.5C1545.26,2306.12,1539.93,2294.31,1535.1,2282.33ZM2144,2111.74c-4.91-8-10.17-16.62-15.44-25.22-1.57,4.24-5.22,9-4.33,12.61,2.49,10.25,6.84,20,10.46,30ZM522.11,1574.17c-4.82-12-10.5-26.21-16.36-40.37-.45-1.08-2.22-1.63-3.37-2.42-.07,1.18-.47,2.46-.17,3.54,4,14.5,7.84,29,12.18,43.41.81,2.67,3.56,4.75,5.42,7.11Zm2027.07,469.16a20,20,0,0,0-2-2.65q-21-19.34-42.12-38.56c-.74-.67-2.25-.49-3.4-.7.28,1.15.18,2.72.9,3.4q20.86,19.74,41.94,39.25a6.88,6.88,0,0,0,3.49,1.35C2548.29,2045.46,2548.81,2044,2549.18,2043.33Zm-986.76-878.55L1533,1142.3c-1,1.42-3.12,3.82-2.85,4.12q11.55,13.13,23.75,25.65C1554,1172.17,1557.19,1169.27,1562.42,1164.78ZM808.82,2490l-8.19-14c-2.09,2.74-4.39,5.36-6.24,8.26-3.37,5.29-6.62,10.67-9.58,16.19-.71,1.33-.09,3.37-.08,5.09ZM857,1962.57l-8.15,5.91c8.28,5.2,16.53,10.46,25,15.42.44.26,2.37-2,3.61-3.09Zm695.68,335.77c-.21,3.09-.67,4.57-.34,5.84,3.23,12.58,6.5,25.15,10.09,37.62.28,1,3.13,1.22,4.78,1.8.66-2.24,2.43-4.87,1.8-6.64-4.1-11.45-8.71-22.71-13.22-34C1555.29,2301.82,1554.37,2300.89,1552.63,2298.34Zm-761-402.12c-1.57,4.69-2.69,6.38-2.26,7,4.5,6.77,9.26,13.38,13.94,20,.67-.8,2.08-2,1.9-2.34C801.26,1913.56,797.17,1906.26,791.6,1896.22Zm763.56,329.9-3.57,1.21c.08,1.21-.26,2.71.32,3.6q6.71,10.26,13.79,20.27c.34.48,1.82.15,2.77.2Q1561.81,2238.77,1555.16,2226.12Zm594-83.29c.82,5.08,1.91,11.93,3,18.79.64-8.27,1.72-16.54,1.72-24.81,0-3.81-2.15-7.61-3.32-11.42C2150.12,2130.56,2149.7,2135.74,2149.13,2142.83Zm41,112-10.72-20.82c-.65,1.34-2.23,3.21-1.82,3.94,3.64,6.35,7.62,12.49,11.51,18.7Zm-839.33,751.44-3,2.89,10.8,9.6c.94-1.56,2.9-4.3,2.66-4.51C1358,3011.51,1354.55,3009.1,1350.76,3006.31ZM530.08,1467.76l-2.31-4.63c-1.26,3.12-3.17,6.16-3.61,9.39-.54,3.9.17,8,.34,12C526.31,1479.07,528.11,1473.65,530.08,1467.76Zm1011.47,739.73c-1.13-2-2.47-4.31-3.81-6.65-1.1,2-3.34,4.32-3,6.12.51,2.81,2.76,5.3,4.26,7.93C1539.74,2212.72,1540.49,2210.55,1541.55,2207.49Zm54.76,214-7.37-22.22c-.5,1.25-1.69,2.71-1.38,3.7,2.22,7.13,4.75,14.16,7.18,21.22C1595.25,2423.33,1595.77,2422.45,1596.31,2421.51Zm-828.63,50.13c4.44-4,8-7.16,11.4-10.4a12.16,12.16,0,0,0-1.18-1.74c-3.95,2.8-7.92,5.57-11.78,8.49C766,2468.11,766.76,2469.51,767.68,2471.64Zm744-1329.83c-3-2.59-5.38-4.88-8-6.88-.41-.31-1.81.69-2.75,1.09,2.53,2.37,5,4.85,7.7,7C1509.06,1143.37,1510.64,1142.27,1511.72,1141.81ZM1507,3027.28l6.2-9.12c-.62-.4-1.69-1.23-1.79-1.13a59.14,59.14,0,0,0-5.47,6.28C1505.54,3023.82,1506.37,3025.2,1507,3027.28ZM522.83,1585.36c-2.6,3.91-4.16,5.25-3.93,6.08a49.08,49.08,0,0,0,3.27,7.27c.52-1.26,1.42-2.5,1.48-3.79C523.75,1592.78,523.33,1590.6,522.83,1585.36Zm1139.12,988c-.82-1.6-1.53-3-2.23-4.35a53.44,53.44,0,0,0-3.07,7.21c-.29,1.08.72,2.52,1.14,3.79Zm-117.6-296.14-2.11-4.39c-.71,1.63-2,3.26-2,4.89,0,1.95,1.12,3.9,1.75,5.85C1542.72,2281.66,1543.43,2279.74,1544.35,2277.23ZM1492.83,1127c-3.31-2.75-6-5.12-8.88-7.24-.42-.3-1.72.59-2.61.93,2.82,2.22,5.59,4.5,8.49,6.6C1490.31,1127.64,1491.38,1127.18,1492.83,1127Zm1073.73,922.31-2.74-3.67c-.93,1.43-2.38,2.77-2.64,4.31-.2,1.17,1.09,2.6,1.72,3.92Zm142.2,95.2a39.83,39.83,0,0,0-5.2-2.09c-.43-.1-1.13.9-1.71,1.4a30.4,30.4,0,0,0,4.08,2.12C2706.41,2146.12,2707.23,2145.33,2708.76,2144.52Zm-559.94,50.37a11.25,11.25,0,0,0,2.3-1.62c.31-.36.11-1.17.14-1.78a15.05,15.05,0,0,0-2.6,1.56C2148.41,2193.27,2148.74,2194.14,2148.82,2194.89Zm-559.88,845.26a35.38,35.38,0,0,0,2.77-3.42c.08-.13-.92-.95-1.41-1.45a19.94,19.94,0,0,0-2.51,2.7C1587.62,3038.25,1588.38,3039.13,1588.94,3040.15Z"/><path d="M869.76,2878.66q-3-7.12-6.07-14.26h0l6.07,14.25Z"/><path d="M869.75,2878.66q1,5.06,2,10.1c-.8-.47-2.27-.92-2.29-1.41-.07-2.89.19-5.79.33-8.69Z"/><path d="M2130.82,2168.76c1.17,1.66,2.41,2.7,2.23,3.32-.31,1.08-1.5,1.9-2.33,2.82-.72-1-1.76-2-2-3.14C2128.52,2171.18,2129.7,2170.25,2130.82,2168.76Z"/><path d="M1537.59,2166c-.29-1.66-.74-2.57-.48-3.18.34-.77,1.25-1.29,1.92-1.92a7.06,7.06,0,0,1,.51,2.55C1539.43,2164.16,1538.64,2164.73,1537.59,2166Z"/><path class="cls-1" d="M779,1989.4c-26.82-.17-68.35-29.5-76.26-54-4.76-14.78-12.55-33.71-14.31-48.44-2.8-23.32-7.36-48.63-6.52-72.36.07-1.89,1.18-3.78,2-5.6,3.5-8.19,7.06-16.35,10.59-24.52,9.22,5.84,22.85,9.68,26.6,18,5.32,11.8,6.23,27.37,4,40.48-7.12,42.27,7.37,77.13,33,108.84,7.25,9,15.92,16.77,23.83,25.2,2.62,2.79,4.92,5.87,7.37,8.81Z"/><path class="cls-1" d="M1505,2997.4c8.42-59,16.77-114.72,24.16-170.62,2.41-18.21,2.23-36.76,3.43-55.15.17-2.69,1.44-5.32,2.21-8,1.84,2.21,4.61,4.15,5.34,6.67,2.6,9,4.61,18.23,6.65,27.4,4.9,22.09,14.44,44.41,13.49,66.27-1.7,39.23-7.88,78.58-16.3,117-2.34,10.68-19.07,18.27-29.68,26.67C1514,3007.86,1508,3000.81,1505,2997.4Z"/><path class="cls-1" d="M1630.1,2411.83c3.69,10.56,10.54,22.87,11.94,35.76,2.49,22.79,1.67,45.94,2.23,68.94-1-.51-2.49-.79-2.78-1.55q-20.82-53.92-41.27-108c-.34-.9,2.22-4,2.6-3.87a37.89,37.89,0,0,1,6.28,3.59c-1.76-3-3.86-5.85-5.21-9-11.23-26.3-22.42-52.61-33.35-79-1.63-3.93-1.87-8.43-2.74-12.66q3.1,4.77,6.2,9.55c13.52,20.9,26.73,42,40.67,62.62,7.76,11.47,17,21.92,24.93,33.31,1.82,2.62.82,7.19,1.12,10.86-1.62-3.49-3.27-7-4.85-10.46-1.16-2.56-2.22-5.16-3.32-7.75C1632,2405.78,1631.51,2407.42,1630.1,2411.83Zm-3.43-8.64-5.2-6.5c-.48.8-1.56,2-1.34,2.33a28,28,0,0,0,4.32,4.72C1624.81,2404.05,1626,2403.36,1626.67,2403.19Z"/><path class="cls-1" d="M1444.42,1160.45q-8.72-29-17.4-57.93a16.23,16.23,0,0,1-.29-3.14c1.86.53,4,.63,5.53,1.64,23.34,15.52,46.47,31.35,69.93,46.68,10.85,7.09,22.44,13.06,33.37,20,2.06,1.31,2.61,5,3.85,7.55-4.1.76-9.89,3.63-12,1.93-11-8.82-22.55-11.08-36.53-9.1-14.58,2.06-29.57,1.52-44.38,1.4-3.17,0-6.32-3.11-9.48-4.78Z"/><path class="cls-1" d="M1260.31,1170.11c.2-18.72,20.35-43.3,32.51-38.24,5.84,2.43,6,18.77,8.55,28.84,5.55,21.65-7.94,24.54-23.78,22.46C1269.9,1182.16,1253.54,1187.39,1260.31,1170.11Z"/><path class="cls-1" d="M838.17,1927c-7.14-7.78-13.87-13.49-18.37-20.61-2.93-4.64-2-11.53-3.94-17-1.3-3.75-4.21-7.09-6.89-10.19s-6.19-5.24-8.53-8.42c-.74-1,1.17-4,1.88-6,3,1.55,6,3.26,9.09,4.62,29.92,13.09,46.19,39.45,63,65.18,1.83,2.81,1.19,7.22,1.69,10.89-2.84-1.62-6.65-2.56-8.35-5C856,1923.8,844.79,1906.74,833,1890.1c-1.18-1.68-5.08-1.43-7.72-2.08.18,1.86-.1,3.94.63,5.55,4.14,9,8.61,17.9,12.72,26.94C839.22,1921.78,838.46,1923.66,838.17,1927Z"/><path class="cls-1" d="M1627.88,2374.21c-.4.81-.93,1.88-1.47,2.95-1-.72-2.27-1.22-2.87-2.17-20.15-32.08-40.38-64.12-60.2-96.41-3.5-5.7-5.34-12.42-7.81-18.73-.28-.71.31-1.77.5-2.67a12.92,12.92,0,0,1,2.35,1c1.64,1.08,3.73,2,4.68,3.51q30.56,49.77,60.75,99.77C1626,2365,1626.46,2369.6,1627.88,2374.21Z"/><path class="cls-1" d="M796.92,1959.85c-.71,1-1.3,2.64-2.26,2.9-1.68.46-4.72.76-5.25-.09-12.21-19.67-24.15-39.5-36.14-59.3a4,4,0,0,1-.32-.74l-8.54-24.06c5.65,7,12.07,13.62,16.81,21.24C773.44,1919.46,784.93,1939.57,796.92,1959.85Z"/><path class="cls-1" d="M1664.31,2535.91l-11.82-5.47,0,0c1-11.62,2.47-23.23,3-34.87.33-7.85-.85-15.75-1-23.63-.06-3.51.76-7,1.18-10.55,1.75,3,4.84,5.92,5,9,1.44,21.71,2.28,43.47,3.32,65.22Z"/><path class="cls-1" d="M1535.1,2282.33c4.83,12,10.16,23.79,14.31,36,2.91,8.55,4.22,17.64,6.16,26.5.07.31-.67.8-1,1.2-1.11-1.2-2.79-2.22-3.22-3.62q-11.71-37.82-23.06-75.74c-.54-1.81.14-4,.25-6,1.12,1.58,2.62,3,3.3,4.78,2.07,5.29,3.82,10.7,5.7,16.07Z"/><path class="cls-1" d="M2492.43,2232.34c.49,1.56,1.73,4.3,1.38,4.52q-30.57,19.53-61.43,38.6c-.53.33-1.64-.28-2.48-.45,1.06-.64,2.13-1.26,3.17-1.93,17.25-11.25,34.54-22.44,51.71-33.82,2.84-1.89,5.13-4.6,7.67-6.93Z"/><path class="cls-1" d="M2144,2111.74l-9.31,17.41c-3.62-10-8-19.77-10.46-30-.89-3.63,2.76-8.37,4.33-12.61C2133.81,2095.12,2139.07,2103.73,2144,2111.74Z"/><path class="cls-1" d="M522.11,1574.17l-2.3,11.27c-1.86-2.36-4.61-4.44-5.42-7.11-4.34-14.39-8.23-28.91-12.18-43.41-.3-1.08.1-2.36.17-3.54,1.15.79,2.92,1.34,3.37,2.42C511.61,1548,517.29,1562.19,522.11,1574.17Z"/><path class="cls-1" d="M2549.18,2043.33c-.37.67-.89,2.13-1.19,2.09a6.88,6.88,0,0,1-3.49-1.35q-21.06-19.53-41.94-39.25c-.72-.68-.62-2.25-.9-3.4,1.15.21,2.66,0,3.4.7q21.15,19.19,42.12,38.56A20,20,0,0,1,2549.18,2043.33Z"/><path class="cls-1" d="M1562.42,1164.78c-5.23,4.49-8.43,7.39-8.53,7.29q-12.2-12.52-23.75-25.65c-.27-.3,1.85-2.7,2.85-4.12Z"/><path class="cls-1" d="M808.82,2490l-24.09,15.55c0-1.72-.63-3.76.08-5.09,3-5.52,6.21-10.9,9.58-16.19,1.85-2.9,4.15-5.52,6.24-8.26Z"/><path class="cls-1" d="M857,1962.57l20.41,18.24c-1.24,1.09-3.17,3.35-3.61,3.09-8.42-5-16.67-10.22-25-15.42Z"/><path class="cls-1" d="M1552.63,2298.34c1.74,2.55,2.66,3.48,3.11,4.61,4.51,11.3,9.12,22.56,13.22,34,.63,1.77-1.14,4.4-1.8,6.64-1.65-.58-4.5-.82-4.78-1.8-3.59-12.47-6.86-25-10.09-37.62C1552,2302.91,1552.42,2301.43,1552.63,2298.34Z"/><path class="cls-1" d="M791.6,1896.22c5.57,10,9.66,17.34,13.58,24.73.18.35-1.23,1.54-1.9,2.34-4.68-6.66-9.44-13.27-13.94-20C788.91,1902.6,790,1900.91,791.6,1896.22Z"/><path class="cls-1" d="M1555.16,2226.12q6.66,12.65,13.31,25.28c-1-.05-2.43.28-2.77-.2q-7.07-10-13.79-20.27c-.58-.89-.24-2.39-.32-3.6Z"/><path class="cls-1" d="M1652.49,2530.44c2.16,6.77,4.92,13.41,6.24,20.33.72,3.81-1,8.08-1.58,12.14-1.65-3.43-4.41-6.77-4.73-10.32-.66-7.32,0-14.75.09-22.13Z"/><path class="cls-1" d="M2149.13,2142.83c.57-7.09,1-12.27,1.41-17.44,1.17,3.81,3.32,7.61,3.32,11.42,0,8.27-1.08,16.54-1.73,24.81C2151,2154.76,2150,2147.91,2149.13,2142.83Z"/><path class="cls-1" d="M2190.09,2254.87l-1,1.82c-3.89-6.21-7.87-12.35-11.51-18.7-.41-.73,1.17-2.6,1.82-3.94Z"/><path class="cls-1" d="M1350.76,3006.31c3.79,2.79,7.27,5.2,10.43,8,.24.21-1.72,2.95-2.66,4.51l-10.8-9.6Z"/><path class="cls-1" d="M530.08,1467.76c-2,5.89-3.77,11.31-5.58,16.72-.17-4-.88-8.06-.34-12,.44-3.23,2.35-6.27,3.61-9.39Z"/><path class="cls-1" d="M1541.55,2207.49c-1.06,3.06-1.81,5.23-2.57,7.4-1.5-2.63-3.75-5.12-4.26-7.93-.32-1.8,1.92-4.07,3-6.12C1539.08,2203.18,1540.42,2205.53,1541.55,2207.49Z"/><path class="cls-1" d="M1596.31,2421.51c-.54.94-1.06,1.82-1.57,2.7-2.43-7.06-5-14.09-7.18-21.22-.31-1,.88-2.45,1.38-3.7Z"/><path class="cls-1" d="M767.68,2471.64c-.92-2.13-1.72-3.53-1.56-3.65,3.86-2.92,7.83-5.69,11.78-8.49a12.16,12.16,0,0,1,1.18,1.74C775.64,2464.48,772.12,2467.63,767.68,2471.64Z"/><path class="cls-1" d="M1511.72,1141.81c-1.08.46-2.66,1.56-3.08,1.22-2.71-2.16-5.17-4.64-7.7-7,.94-.4,2.34-1.4,2.75-1.09C1506.34,1136.93,1508.77,1139.22,1511.72,1141.81Z"/><path class="cls-1" d="M1507,3027.28c-.6-2.08-1.43-3.46-1.06-4a59.14,59.14,0,0,1,5.47-6.28c.1-.1,1.17.73,1.79,1.13Z"/><path class="cls-1" d="M522.83,1585.36c.5,5.24.92,7.42.82,9.56-.06,1.29-1,2.53-1.48,3.79a49.08,49.08,0,0,1-3.27-7.27C518.67,1590.61,520.23,1589.27,522.83,1585.36Z"/><path class="cls-1" d="M1662,2573.37l-4.16,6.65c-.42-1.27-1.43-2.71-1.14-3.79a53.44,53.44,0,0,1,3.07-7.21C1660.42,2570.4,1661.13,2571.77,1662,2573.37Z"/><path class="cls-1" d="M1544.35,2277.23c-.92,2.51-1.63,4.43-2.34,6.35-.63-1.95-1.74-3.9-1.75-5.85,0-1.63,1.27-3.26,2-4.89Z"/><path class="cls-1" d="M1492.83,1127c-1.45.17-2.52.63-3,.29-2.9-2.1-5.67-4.38-8.49-6.6.89-.34,2.19-1.23,2.61-.93C1486.82,1121.89,1489.52,1124.26,1492.83,1127Z"/><path class="cls-1" d="M1664,2535.67l-2.75,8.13-3.38-2.14,6.41-5.75Z"/><path class="cls-1" d="M2492.45,2232.33l11.39-3.56c-.49.77-.87,2.09-1.47,2.21-3.28.62-6.62.94-9.94,1.36Z"/><path class="cls-1" d="M1391.71,3051.58q.74-4.48,1.48-9c.81.71,2.42,1.83,2.3,2.07-1.18,2.31-2.64,4.47-4,6.67C1391.43,3051.33,1391.71,3051.58,1391.71,3051.58Z"/><path class="cls-1" d="M2566.56,2049.32l-3.66,4.56c-.63-1.32-1.92-2.75-1.72-3.92.26-1.54,1.71-2.88,2.64-4.31Z"/><path class="cls-1" d="M2708.76,2144.52c-1.53.81-2.35,1.6-2.83,1.43a30.4,30.4,0,0,1-4.08-2.12c.58-.5,1.28-1.5,1.71-1.4A39.83,39.83,0,0,1,2708.76,2144.52Z"/><path class="cls-1" d="M1598.16,1913.67c-1.1,1.79-2.21,3.58-3.31,5.38l-2.21-3,5.78-2.15Z"/><path class="cls-1" d="M2148.82,2194.89c-.08-.75-.41-1.62-.16-1.84a15.05,15.05,0,0,1,2.6-1.56c0,.61.17,1.42-.14,1.78A11.25,11.25,0,0,1,2148.82,2194.89Z"/><path class="cls-1" d="M1588.94,3040.15c-.56-1-1.32-1.9-1.15-2.17a19.94,19.94,0,0,1,2.51-2.7c.49.5,1.49,1.32,1.41,1.45A35.38,35.38,0,0,1,1588.94,3040.15Z"/><path d="M1849,1172.31c-2.24,2-4.32,5.42-6.74,5.68-8.73.94-17.88-.52-26.3,1.42-9.19,2.11-17.72,7-26.59,10.62-1.12.46-3.57.43-3.74,0-1-2.55-2.85-6.08-1.86-7.83,8.7-15.46,18-30.59,27-45.87a32,32,0,0,0,2-5.45,32.21,32.21,0,0,1-4.26,2.58c-2.37,1-4.86,1.75-7.3,2.6,0-2.55-1.17-6.07.08-7.48,11.4-12.86,21.86-27.08,35.23-37.53,20.18-15.76,42.46-28.82,63.86-43,27.94-18.53,59.53-25.59,91.6-20.21a274.23,274.23,0,0,1,78,25.35c15.53,7.89,26,25.78,38.74,39.11,1.68,1.75,4.23,2.79,5.57,4.72,2,2.87,3.29,6.23,4.88,9.39-2.87-.2-5.79-.19-8.62-.66-2.13-.35-4.13-1.55-6.25-1.84-.48-.06-2,2.84-1.78,3.08a37.37,37.37,0,0,0,5.48,4.26c2.32,1.57,4.72,3,7.08,4.52-1.8-.12-3.69-.62-5.35-.19-.9.23-1.41,2-2.09,3.13,2,1.17,3.86,2.44,5.87,3.5,11.07,5.79,22.11,11.62,33.25,17.25,17.76,9,5.14,14.75-3,17.52-11.47,3.93-25.2,9.26-35.69,6.19-16.84-4.92-31.82-16.21-47.57-24.83-3-1.65-5.95-3.39-8.93-5.09-3.47,7.92-7.38,15.71-9.85,23.94-.29,1,7.23,6,11.26,6.18,6,.26,12.07-2.12,18.12-3.39.91-.19,2-.86,2.68-.56,10.36,4.63,20.7,9.3,31,14.15a82,82,0,0,1,8,5c-3.45,1.43-7.06,4.36-10.33,4-10.14-1.07-20.19-4.9-30.21-4.64-6.07.15-11.85,6.21-18,9a31.13,31.13,0,0,1-11.5,2.8c-32.91,1.06-65.86,2.89-98.74,2.24-14.65-.28-29.17-5.81-43.8-8.75-2.48-.5-5.17.06-7.77.11-12.72.25-25.48,1-38.14.22-2.08-.13-3.72-7.17-5.6-11,2-3.84,3.4-10.37,6.25-11.09,9.09-2.3,18.83-1.93,28.09-3.74,2.51-.49,4.33-5,6.16-7.85.22-.33-1.31-2.48-2.31-2.76-2-.54-4.16-.36-6.26-.48,2.08-1.21,5.42-2,6-3.7,1.59-4.82,2-10,3-15.07-4.64.57-9.7.16-13.82,1.93A142.71,142.71,0,0,0,1855,1141.3c-10.43,6.76-20.54,14-30.79,21,6.72,2.83,13.43,5.68,20.17,8.47C1845.85,1171.43,1847.42,1171.82,1849,1172.31Zm-13.54-58.4c-1.71-2.71-2.27-3.58-2.83-4.46-5,5.08-10.16,10.1-15,15.39-.4.44,1.13,2.65,1.76,4.05ZM2018,1050.77l-15.55,3.28c7.54.75,15.08,1.53,22.62,2.23a22.86,22.86,0,0,0,3.59-.23Zm30.4,9.24c-3.7-2.26-5.85-4.63-7.92-4.57-2.69.08-5.32,2.1-8,3.28,1.68,2,3.36,5.6,5,5.6C2040.55,1064.34,2043.51,1062.13,2048.44,1060Zm36.3,19c-4.54-3.23-7.19-5.33-10.09-7-.55-.31-2.06,1-3.13,1.62a77.06,77.06,0,0,0,7.08,6.59C2079.34,1080.75,2081.23,1079.74,2084.74,1079ZM1845,1106.81l-1.39-2.29a44.55,44.55,0,0,0-4.74,3.12c-.28.23.36,1.58.57,2.42Z"/><path d="M1950.56,925.73c19.65-3.92,35.37-10,50.84-9.42,20.6.75,41.88,4.2,61.22,11.1,15.28,5.45,28,18,42,27.15,9.59,6.25,20.19,11.19,29,18.41,6.55,5.4,11,13.4,16,20.51.74,1-.2,4.81-1.17,5.17-1.77.67-4.37.23-6.23-.61-29.5-13.31-57.93-33.61-88.69-38.16-28.06-4.15-60.59,4-87.63,15.22-38.29,15.88-72.46,41.5-110.26,58.89-14,6.44-35.12,6.08-49.76.44-22.56-8.7-17.5-40.16,8.07-53.09,29.76-15,59.92-29.45,90.62-42.42C1920.37,932.25,1937.74,929.3,1950.56,925.73Z"/><path d="M1626.67,2403.19c-.63.17-1.86.86-2.22.55a28,28,0,0,1-4.32-4.72c-.22-.29.86-1.53,1.34-2.33Z"/><path class="cls-1" d="M1875,1171c-1.49-.24-3-.38-4.48-.74-6.7-1.64-13.38-3.35-20.07-5,8.57-8,17-16.26,25.77-24.08a133.8,133.8,0,0,1,17.65-13.72c3.6-2.25,8.39-2.59,12.64-3.79-.12,4.85.2,9.77-.6,14.51-.28,1.67-3.29,2.89-5.06,4.31a29.07,29.07,0,0,1,5.92-.44c1,.11,2.71,1.9,2.56,2.24-1.31,2.93-2.36,7.4-4.64,8.22-8.4,3-17.55,4.08-25.72,7.53-2.56,1.08-2.91,7.37-4.25,11.26Z"/><path class="cls-1" d="M1853.94,1118.36l-12.87,16.3c-.79-1.21-2.54-3.06-2.23-3.53,3.76-5.63,7.83-11.06,11.82-16.54Z"/><path class="cls-1" d="M2015.59,1033.17l10.72,3.41a21.68,21.68,0,0,1-3.32.73c-7.16.42-14.31.78-21.47,1.16Z"/><path class="cls-1" d="M2045.32,1037.45c-4.3,2.69-6.75,5.18-9.51,5.59-1.58.23-3.66-2.9-5.52-4.51,2.31-1.49,4.48-3.75,7-4.21C2039.2,1034,2041.54,1035.87,2045.32,1037.45Z"/><path class="cls-1" d="M2082,1050c-3.17,1.22-4.79,2.42-5.56,2a73.05,73.05,0,0,1-7.57-5.14c.92-.7,2.14-2.18,2.7-2C2074.48,1046,2077.27,1047.62,2082,1050Z"/><path class="cls-1" d="M1861.87,1110.35l-4.74,3.83c-.31-.75-1.1-1.91-.87-2.17a42.66,42.66,0,0,1,4-3.6Z"/></svg>